<mxfile host="Electron" modified="2024-07-09T08:31:49.030Z" agent="Mozilla/5.0 (X11; Linux x86_64) AppleWebKit/537.36 (KHTML, like Gecko) draw.io/24.2.5 Chrome/120.0.6099.109 Electron/28.1.0 Safari/537.36" etag="dVDSclSmHYEzYTpJOcCc" version="24.2.5" type="device">
  <diagram name="Page-1" id="UswiV8kJdXYd4FI-y-HA">
    <mxGraphModel dx="1434" dy="835" grid="1" gridSize="10" guides="1" tooltips="1" connect="1" arrows="1" fold="1" page="1" pageScale="1" pageWidth="850" pageHeight="1100" math="0" shadow="0">
      <root>
        <mxCell id="0" />
        <mxCell id="1" parent="0" />
        <mxCell id="MC3kBA18-3uo8F8Iywav-2" value="A" style="rounded=0;whiteSpace=wrap;html=1;shadow=0;strokeColor=#6c8ebf;strokeWidth=1;fontFamily=Ubuntu;fontSize=16;fontStyle=0;fillColor=#dae8fc;" vertex="1" parent="1">
          <mxGeometry x="290" y="390" width="60" height="40" as="geometry" />
        </mxCell>
        <mxCell id="MC3kBA18-3uo8F8Iywav-3" value="" style="endArrow=none;html=1;rounded=1;shadow=0;strokeColor=#6c8ebf;strokeWidth=1;fontFamily=Ubuntu;fontSize=14;fontStyle=0;fillColor=#dae8fc;" edge="1" parent="1">
          <mxGeometry width="50" height="50" relative="1" as="geometry">
            <mxPoint x="370" y="240" as="sourcePoint" />
            <mxPoint x="270" y="240" as="targetPoint" />
            <Array as="points">
              <mxPoint x="370" y="440" />
              <mxPoint x="270" y="440" />
            </Array>
          </mxGeometry>
        </mxCell>
        <mxCell id="MC3kBA18-3uo8F8Iywav-4" value="" style="endArrow=none;html=1;rounded=1;shadow=0;strokeColor=#6c8ebf;strokeWidth=1;fontFamily=Ubuntu;fontSize=14;fontStyle=0;fillColor=#dae8fc;" edge="1" parent="1">
          <mxGeometry width="50" height="50" relative="1" as="geometry">
            <mxPoint x="540" y="240" as="sourcePoint" />
            <mxPoint x="440" y="240" as="targetPoint" />
            <Array as="points">
              <mxPoint x="540" y="440" />
              <mxPoint x="440" y="440" />
            </Array>
          </mxGeometry>
        </mxCell>
        <mxCell id="MC3kBA18-3uo8F8Iywav-5" value="B" style="rounded=0;whiteSpace=wrap;html=1;shadow=0;strokeColor=#6c8ebf;strokeWidth=1;fontFamily=Ubuntu;fontSize=16;fontStyle=0;fillColor=#dae8fc;" vertex="1" parent="1">
          <mxGeometry x="290" y="340" width="60" height="40" as="geometry" />
        </mxCell>
        <mxCell id="MC3kBA18-3uo8F8Iywav-6" value="C" style="rounded=0;whiteSpace=wrap;html=1;shadow=0;strokeColor=#6c8ebf;strokeWidth=1;fontFamily=Ubuntu;fontSize=16;fontStyle=0;fillColor=#dae8fc;" vertex="1" parent="1">
          <mxGeometry x="290" y="290" width="60" height="40" as="geometry" />
        </mxCell>
        <mxCell id="MC3kBA18-3uo8F8Iywav-8" style="edgeStyle=orthogonalEdgeStyle;rounded=1;orthogonalLoop=1;jettySize=auto;html=1;entryX=0;entryY=0.5;entryDx=0;entryDy=0;shadow=0;strokeColor=#6c8ebf;strokeWidth=1;fontFamily=Ubuntu;fontSize=14;fontStyle=0;endArrow=block;endFill=1;fillColor=#dae8fc;" edge="1" parent="1" source="MC3kBA18-3uo8F8Iywav-7" target="MC3kBA18-3uo8F8Iywav-6">
          <mxGeometry relative="1" as="geometry" />
        </mxCell>
        <mxCell id="MC3kBA18-3uo8F8Iywav-7" value="top" style="text;html=1;align=center;verticalAlign=middle;whiteSpace=wrap;rounded=0;fontFamily=Ubuntu;fontSize=16;fontStyle=0;" vertex="1" parent="1">
          <mxGeometry x="220" y="295" width="40" height="30" as="geometry" />
        </mxCell>
        <mxCell id="MC3kBA18-3uo8F8Iywav-13" value="A" style="rounded=0;whiteSpace=wrap;html=1;shadow=0;strokeColor=#6c8ebf;strokeWidth=1;fontFamily=Ubuntu;fontSize=16;fontStyle=0;fillColor=#dae8fc;" vertex="1" parent="1">
          <mxGeometry x="460" y="390" width="60" height="40" as="geometry" />
        </mxCell>
        <mxCell id="MC3kBA18-3uo8F8Iywav-14" value="B" style="rounded=0;whiteSpace=wrap;html=1;shadow=0;strokeColor=#6c8ebf;strokeWidth=1;fontFamily=Ubuntu;fontSize=16;fontStyle=0;fillColor=#dae8fc;" vertex="1" parent="1">
          <mxGeometry x="460" y="340" width="60" height="40" as="geometry" />
        </mxCell>
        <mxCell id="MC3kBA18-3uo8F8Iywav-16" style="edgeStyle=orthogonalEdgeStyle;rounded=1;orthogonalLoop=1;jettySize=auto;html=1;shadow=0;strokeColor=#6c8ebf;strokeWidth=1;fontFamily=Ubuntu;fontSize=14;fontStyle=0;endArrow=block;endFill=1;fillColor=#dae8fc;entryX=1;entryY=0.5;entryDx=0;entryDy=0;" edge="1" parent="1" source="MC3kBA18-3uo8F8Iywav-15" target="MC3kBA18-3uo8F8Iywav-22">
          <mxGeometry relative="1" as="geometry" />
        </mxCell>
        <mxCell id="MC3kBA18-3uo8F8Iywav-15" value="top" style="text;html=1;align=center;verticalAlign=middle;whiteSpace=wrap;rounded=0;fontFamily=Ubuntu;fontSize=16;fontStyle=0;" vertex="1" parent="1">
          <mxGeometry x="553" y="245" width="40" height="30" as="geometry" />
        </mxCell>
        <mxCell id="MC3kBA18-3uo8F8Iywav-21" value="C" style="rounded=0;whiteSpace=wrap;html=1;shadow=0;strokeColor=#6c8ebf;strokeWidth=1;fontFamily=Ubuntu;fontSize=16;fontStyle=0;fillColor=#dae8fc;" vertex="1" parent="1">
          <mxGeometry x="460" y="290" width="60" height="40" as="geometry" />
        </mxCell>
        <mxCell id="MC3kBA18-3uo8F8Iywav-22" value="D" style="rounded=0;whiteSpace=wrap;html=1;shadow=0;strokeColor=#6c8ebf;strokeWidth=1;fontFamily=Ubuntu;fontSize=16;fontStyle=0;fillColor=#dae8fc;" vertex="1" parent="1">
          <mxGeometry x="460" y="240" width="60" height="40" as="geometry" />
        </mxCell>
        <mxCell id="MC3kBA18-3uo8F8Iywav-23" value="Stack" style="text;html=1;align=center;verticalAlign=middle;whiteSpace=wrap;rounded=0;fontFamily=Ubuntu;fontSize=16;fontStyle=0;" vertex="1" parent="1">
          <mxGeometry x="290" y="450" width="60" height="30" as="geometry" />
        </mxCell>
        <mxCell id="MC3kBA18-3uo8F8Iywav-24" value="Stack" style="text;html=1;align=center;verticalAlign=middle;whiteSpace=wrap;rounded=0;fontFamily=Ubuntu;fontSize=16;fontStyle=0;" vertex="1" parent="1">
          <mxGeometry x="460" y="450" width="60" height="30" as="geometry" />
        </mxCell>
        <mxCell id="MC3kBA18-3uo8F8Iywav-25" value="D" style="rounded=0;whiteSpace=wrap;html=1;shadow=0;strokeColor=#6c8ebf;strokeWidth=1;fontFamily=Ubuntu;fontSize=16;fontStyle=0;fillColor=#dae8fc;" vertex="1" parent="1">
          <mxGeometry x="170" y="190" width="60" height="40" as="geometry" />
        </mxCell>
        <mxCell id="MC3kBA18-3uo8F8Iywav-26" value="" style="endArrow=classic;html=1;rounded=0;shadow=0;strokeColor=#6c8ebf;strokeWidth=3;fontFamily=Ubuntu;fontSize=14;fontStyle=0;fillColor=#dae8fc;curved=1;" edge="1" parent="1">
          <mxGeometry width="50" height="50" relative="1" as="geometry">
            <mxPoint x="260" y="205" as="sourcePoint" />
            <mxPoint x="320" y="245" as="targetPoint" />
            <Array as="points">
              <mxPoint x="320" y="195" />
            </Array>
          </mxGeometry>
        </mxCell>
        <mxCell id="MC3kBA18-3uo8F8Iywav-27" value="push() 操作" style="text;html=1;align=center;verticalAlign=middle;whiteSpace=wrap;rounded=0;fontFamily=Ubuntu;fontSize=16;fontStyle=0;" vertex="1" parent="1">
          <mxGeometry x="330" y="149" width="140" height="30" as="geometry" />
        </mxCell>
      </root>
    </mxGraphModel>
  </diagram>
</mxfile>
